<?xml version="1.0" encoding="utf-8"?>
<!-- Generator: Adobe Illustrator 16.0.0, SVG Export Plug-In . SVG Version: 6.00 Build 0)  -->
<!DOCTYPE svg PUBLIC "-//W3C//DTD SVG 1.1//EN" "http://www.w3.org/Graphics/SVG/1.1/DTD/svg11.dtd">
<svg version="1.1" id="Layer_1" xmlns="http://www.w3.org/2000/svg" xmlns:xlink="http://www.w3.org/1999/xlink" x="0px" y="0px"
	 width="48px" height="48px" viewBox="0 0 48 48" enable-background="new 0 0 48 48" xml:space="preserve">
<g>
	<g>
		<path fill="none" stroke="#FFFFFF" stroke-miterlimit="10" d="M20.247,46.289c-3.243-0.053-7.305-0.52-11.145-1.277
			c-0.608-0.117-1.17-0.32-1.668-0.597c-0.637-0.353-0.799-0.788-0.824-1.092c-0.023-0.302,0.068-0.755,0.634-1.197
			c0.743-0.579,1.58-0.965,2.307-1.278c0.828-0.361,1.703-0.658,2.603-0.882c0.226-0.061,0.483-0.09,0.778-0.09
			c0.645,0.002,0.882,0.356,0.956,0.509c0.074,0.153,0.205,0.563-0.175,1.045c-0.269,0.346-0.6,0.594-0.825,0.75
			c-0.202,0.137-0.408,0.279-0.592,0.432c0.552,0.18,1.14,0.271,1.758,0.369l0.386,0.061c1.978,0.328,4.15,0.484,6.641,0.484
			c1.819,0,3.622-0.08,5.297-0.168c3.569-0.186,6.296-0.475,8.843-0.934c0.37-0.068,0.738-0.154,1.107-0.24
			c0.234-0.055,0.469-0.106,0.704-0.158c0.38-0.08,0.712-0.309,1.093-0.57l0.166-0.113c0.177-0.122,0.423-0.294,0.762-0.294
			c0.272,0,0.533,0.116,0.73,0.33c0.191,0.205,0.568,0.765-0.04,1.537c-0.388,0.502-0.927,0.759-1.298,0.905
			c-1.817,0.718-3.858,1.236-6.24,1.591c-4.12,0.61-7.691,0.875-11.945,0.879C20.255,46.289,20.25,46.289,20.247,46.289z
			 M24.351,40.874c-2.038,0-4.021-0.257-5.895-0.769c-0.553-0.151-1.267-0.383-1.893-0.84c-0.313-0.229-0.943-0.688-0.764-1.48
			c0.186-0.836,1.002-0.932,1.311-0.969c1.278-0.172,2.387-0.252,3.464-0.252c0.178,0,0.355,0.002,0.534,0.006l0.313,0.011
			c2.974,0.09,6.05,0.18,9.062,0.733c0.246,0.045,0.492,0.095,0.729,0.174c0.637,0.178,0.938,0.504,0.959,0.99
			c0.016,0.316-0.097,0.769-0.697,1.133c-0.716,0.43-1.527,0.701-2.639,0.884C27.291,40.748,25.783,40.874,24.351,40.874
			L24.351,40.874z M21.633,35.739c-1.357-0.009-2.761-0.021-4.146-0.479c-0.988-0.326-1.719-0.755-2.301-1.348
			c-0.147-0.145-0.281-0.307-0.392-0.479c-0.176-0.272-0.584-0.906-0.157-1.559c0.213-0.323,0.551-0.502,0.951-0.502
			c0.245,0,0.464,0.066,0.625,0.113c2.529,0.763,5.134,0.826,7.802,0.826l0.645-0.002c0.771,0,1.544-0.013,2.316-0.022
			c0.808-0.011,1.613-0.022,2.422-0.022l0.653,0.004c0.517,0.004,1.052,0.064,1.685,0.198c0.814,0.153,0.955,0.644,0.973,0.921
			c0.025,0.418-0.195,0.742-0.656,0.963c-0.935,0.489-1.869,0.64-2.773,0.783l-0.282,0.047c-2.259,0.375-4.483,0.564-6.615,0.564
			C22.381,35.746,21.633,35.739,21.633,35.739z M36.424,36.126c-0.303-0.001-0.578-0.13-0.775-0.362
			c-0.244-0.289-0.416-0.774,0.136-1.445c0.024-0.028,0.05-0.06,0.067-0.086c0.336-0.508,0.735-0.938,1.123-1.354
			c0.438-0.474,0.854-0.922,1.143-1.438c0.256-0.461,0.52-0.94,0.629-1.441c0.182-0.834-0.148-1.402-0.984-1.691
			c-0.181-0.063-0.363-0.117-0.574-0.179l-0.273-0.084c-0.307-0.093-0.514-0.378-0.504-0.696c0.01-0.32,0.23-0.598,0.54-0.673
			c0.401-0.1,0.812-0.149,1.21-0.149c1.99,0,3.65,1.188,4.229,3.021c0.27,0.846,0.123,1.655-0.423,2.342
			c-1.204,1.521-2.741,2.84-4.569,3.926c-0.043,0.026-0.139,0.072-0.185,0.09c-0.049,0.017-0.087,0.035-0.13,0.053
			C36.914,36.025,36.689,36.126,36.424,36.126L36.424,36.126z M18.538,30.993c-0.391,0-0.783-0.002-1.175-0.009
			c-2.097-0.037-4.048-0.643-5.513-1.166c-0.239-0.084-0.968-0.344-1.049-1.027c-0.081-0.684,0.563-1.102,0.774-1.24
			c1.626-1.063,3.071-1.716,4.548-2.058c0.244-0.062,0.452-0.11,0.678-0.11c0.44,0,0.804,0.205,1,0.564
			c0.403,0.746-0.237,1.287-0.448,1.467c-0.037,0.031-0.073,0.061-0.102,0.091c-0.167,0.164-0.34,0.32-0.515,0.476
			c-0.061,0.056-0.121,0.108-0.181,0.164c0.002,0,0.005,0,0.007,0c0.653,0.012,1.306,0.02,1.959,0.02
			c1.103,0,2.085-0.021,3.005-0.064c1.339-0.063,2.679-0.097,4.02-0.129c0.64-0.016,1.278-0.029,1.917-0.051
			c0.455-0.014,0.913-0.021,1.37-0.021c1.194,0,2.308,0.051,3.396,0.153c0.23,0.015,0.566,0.035,0.914,0.324
			c0.188,0.153,0.281,0.394,0.252,0.634c-0.028,0.242-0.18,0.449-0.396,0.555c-0.74,0.354-1.473,0.47-2.219,0.564
			C26.141,30.72,22.25,30.993,18.538,30.993L18.538,30.993z M27.588,26.583c-0.482,0-0.771-0.229-0.93-0.42
			c-0.469-0.563-0.174-1.181-0.049-1.443c0.063-0.132,0.063-0.291,0.002-0.581c-0.178-0.854-0.545-1.721-1.15-2.729
			c-0.98-1.626-1.318-3.337-1.002-5.083c0.287-1.584,1.174-2.942,2.707-4.152c1.618-1.278,3.618-2.174,6.111-2.737
			c0.052-0.012,0.183-0.025,0.234-0.025l0.244,0.006c0.283,0,0.538,0.167,0.651,0.426c0.114,0.259,0.062,0.563-0.132,0.77
			c-0.51,0.549-1.014,0.903-1.5,1.246l-0.7,0.489c-1.019,0.707-1.979,1.375-2.759,2.256c-0.84,0.952-1.047,1.961-0.648,3.178
			c0.227,0.689,0.58,1.357,0.923,1.982c0.79,1.448,1.011,2.917,0.654,4.367c-0.158,0.646-0.442,1.455-1.235,2.013
			c-0.213,0.147-0.541,0.347-0.965,0.396l-0.102,0.015C27.827,26.566,27.705,26.583,27.588,26.583z M22.227,26.451
			c-0.469-0.068-0.729-0.313-0.869-0.442c-1.832-1.715-3.175-3.194-4.269-4.691c-1.489-2.042-1.494-3.722-0.017-5.799
			c0.922-1.296,2.027-2.436,3.096-3.538l0.677-0.702c1.571-1.643,3.601-3.841,5.37-6.304c0.631-0.877,1.023-1.889,1.439-2.96
			l0.054-0.135c0.106-0.274,0.372-0.453,0.663-0.453c0.021,0,0.043,0.001,0.063,0.003c0.315,0.028,0.573,0.263,0.635,0.574
			c0.482,2.51-0.157,5.123-1.854,7.556c-1.23,1.766-2.849,3.409-4.946,5.022c-0.607,0.467-0.798,0.727-1.202,1.173
			c-1.32,1.457-1.532,3.01-0.666,4.891c0.367,0.795,0.825,1.537,1.309,2.321c0.225,0.365,0.449,0.729,0.663,1.098l0.061,0.103
			c0.239,0.405,0.511,0.862,0.597,1.48c0.031,0.223-0.044,0.445-0.202,0.604c-0.134,0.134-0.315,0.207-0.502,0.207
			C22.295,26.456,22.262,26.454,22.227,26.451z"/>
	</g>
	<g>
		<path fill="none" stroke="#FFFFFF" stroke-miterlimit="10" d="M20.247,46.289c-3.243-0.053-7.305-0.52-11.145-1.277
			c-0.608-0.117-1.17-0.32-1.668-0.597c-0.637-0.353-0.799-0.788-0.824-1.092c-0.023-0.302,0.068-0.755,0.634-1.197
			c0.743-0.579,1.58-0.965,2.307-1.278c0.828-0.361,1.703-0.658,2.603-0.882c0.226-0.061,0.483-0.09,0.778-0.09
			c0.645,0.002,0.882,0.356,0.956,0.509c0.074,0.153,0.205,0.563-0.175,1.045c-0.269,0.346-0.6,0.594-0.825,0.75
			c-0.202,0.137-0.408,0.279-0.592,0.432c0.552,0.18,1.14,0.271,1.758,0.369l0.386,0.061c1.978,0.328,4.149,0.484,6.641,0.484
			c1.819,0,3.622-0.08,5.297-0.168c3.569-0.186,6.296-0.475,8.843-0.934c0.37-0.068,0.738-0.154,1.107-0.24
			c0.234-0.055,0.469-0.106,0.704-0.158c0.38-0.08,0.712-0.309,1.093-0.57l0.166-0.113c0.177-0.122,0.423-0.294,0.762-0.294
			c0.272,0,0.533,0.116,0.73,0.33c0.191,0.205,0.568,0.765-0.04,1.537c-0.388,0.502-0.927,0.759-1.298,0.905
			c-1.817,0.718-3.858,1.236-6.24,1.591c-4.12,0.61-7.691,0.875-11.945,0.879C20.255,46.289,20.25,46.289,20.247,46.289z"/>
	</g>
	<g>
		<path fill="none" stroke="#FFFFFF" stroke-miterlimit="10" d="M24.351,40.874c-2.038,0-4.021-0.257-5.895-0.769
			c-0.553-0.151-1.267-0.383-1.893-0.84c-0.313-0.229-0.943-0.688-0.764-1.48c0.186-0.836,1.002-0.932,1.31-0.969
			c1.277-0.172,2.386-0.252,3.464-0.252c0.178,0,0.355,0.002,0.534,0.006l0.314,0.011c2.973,0.09,6.05,0.18,9.062,0.733
			c0.246,0.045,0.494,0.095,0.728,0.174c0.638,0.178,0.938,0.504,0.96,0.99c0.014,0.316-0.096,0.769-0.697,1.133
			c-0.716,0.43-1.529,0.701-2.64,0.884C27.291,40.748,25.782,40.874,24.351,40.874z"/>
	</g>
	<g>
		<path fill="none" stroke="#FFFFFF" stroke-miterlimit="10" d="M18.538,30.993c-0.391,0-0.782-0.002-1.175-0.009
			c-2.097-0.037-4.048-0.643-5.513-1.166c-0.239-0.084-0.968-0.344-1.049-1.027c-0.081-0.684,0.563-1.102,0.774-1.24
			c1.626-1.063,3.071-1.716,4.548-2.058c0.244-0.062,0.452-0.11,0.678-0.11c0.44,0,0.804,0.205,1,0.564
			c0.403,0.746-0.237,1.287-0.448,1.467c-0.037,0.031-0.073,0.061-0.102,0.091c-0.167,0.164-0.34,0.32-0.515,0.476
			c-0.061,0.056-0.121,0.108-0.181,0.164c0.002,0,0.005,0,0.007,0c0.653,0.012,1.306,0.02,1.959,0.02
			c1.103,0,2.085-0.021,3.005-0.064c1.339-0.063,2.679-0.097,4.02-0.129c0.64-0.016,1.278-0.029,1.917-0.051
			c0.455-0.014,0.913-0.021,1.37-0.021c1.194,0,2.308,0.051,3.396,0.153c0.23,0.015,0.566,0.035,0.914,0.324
			c0.188,0.153,0.281,0.394,0.252,0.634c-0.028,0.242-0.18,0.449-0.396,0.555c-0.74,0.354-1.473,0.47-2.219,0.564
			C26.141,30.72,22.25,30.993,18.538,30.993z"/>
	</g>
	<g>
		<path fill="none" stroke="#FFFFFF" stroke-miterlimit="10" d="M21.633,35.739c-1.357-0.009-2.761-0.021-4.146-0.479
			c-0.988-0.326-1.719-0.755-2.301-1.348c-0.147-0.145-0.281-0.307-0.392-0.479c-0.176-0.272-0.584-0.906-0.157-1.559
			c0.213-0.323,0.551-0.502,0.951-0.502c0.245,0,0.464,0.066,0.625,0.113c2.529,0.763,5.134,0.826,7.803,0.826l0.644-0.002
			c0.771,0,1.544-0.013,2.316-0.022c0.808-0.011,1.613-0.022,2.422-0.022l0.653,0.004c0.517,0.004,1.052,0.064,1.685,0.198
			c0.814,0.153,0.955,0.644,0.973,0.921c0.025,0.418-0.195,0.742-0.656,0.963c-0.935,0.489-1.869,0.64-2.773,0.783l-0.282,0.047
			c-2.259,0.375-4.483,0.564-6.615,0.564L21.633,35.739z"/>
	</g>
	<g>
		<path fill="none" stroke="#FFFFFF" stroke-miterlimit="10" d="M36.424,36.125c-0.303,0-0.578-0.129-0.775-0.361
			c-0.244-0.289-0.416-0.774,0.136-1.445c0.024-0.028,0.05-0.06,0.067-0.086c0.336-0.508,0.735-0.938,1.123-1.354
			c0.438-0.474,0.854-0.922,1.143-1.438c0.256-0.461,0.52-0.94,0.629-1.441c0.182-0.834-0.148-1.402-0.984-1.691
			c-0.181-0.063-0.363-0.117-0.574-0.179l-0.273-0.084c-0.307-0.093-0.514-0.378-0.504-0.696c0.008-0.32,0.23-0.598,0.54-0.673
			c0.401-0.1,0.812-0.149,1.21-0.149c1.99,0,3.65,1.188,4.229,3.021c0.27,0.846,0.123,1.655-0.423,2.342
			c-1.204,1.521-2.741,2.84-4.569,3.926c-0.043,0.026-0.139,0.072-0.185,0.09c-0.049,0.017-0.087,0.035-0.13,0.053
			C36.914,36.025,36.689,36.125,36.424,36.125z"/>
	</g>
</g>
</svg>
