<?xml version="1.0" encoding="utf-8"?>
<!-- Generator: Adobe Illustrator 16.0.0, SVG Export Plug-In . SVG Version: 6.00 Build 0)  -->
<!DOCTYPE svg PUBLIC "-//W3C//DTD SVG 1.1//EN" "http://www.w3.org/Graphics/SVG/1.1/DTD/svg11.dtd">
<svg version="1.1" id="Layer_1" xmlns="http://www.w3.org/2000/svg" xmlns:xlink="http://www.w3.org/1999/xlink" x="0px" y="0px"
	 width="50px" height="50px" viewBox="0 0 50 50" enable-background="new 0 0 50 50" xml:space="preserve">
<g>
	<path fill="none" stroke="#FFFFFF" stroke-miterlimit="10" d="M18.49,11.617c0-0.007,0-0.014,0-0.021
		c-0.799,0-1.599,0.009-2.398-0.005c-0.292-0.005-0.511,0.069-0.724,0.277c-4.382,4.272-8.77,8.54-13.167,12.797
		c-0.29,0.28-0.248,0.42,0.017,0.677c4.376,4.25,8.744,8.506,13.106,12.77c0.242,0.236,0.489,0.34,0.832,0.332
		c1.556-0.024,3.112-0.021,4.668-0.057c0.393-0.009,0.604,0.125,0.788,0.45c0.739,1.308,1.511,2.595,2.255,3.897
		c0.174,0.308,0.383,0.479,0.748,0.574c5.904,1.526,11.807,3.066,17.703,4.627c0.531,0.141,0.74,0.078,0.894-0.484
		c1.56-5.766,3.149-11.521,4.748-17.277c0.095-0.336,0.03-0.581-0.14-0.857c-0.784-1.28-1.539-2.582-2.342-3.852
		c-0.224-0.353-0.205-0.597,0.01-0.938c0.798-1.274,1.555-2.571,2.342-3.851c0.173-0.282,0.216-0.529,0.124-0.86
		c-1.604-5.774-3.2-11.551-4.769-17.335c-0.145-0.533-0.359-0.538-0.813-0.418C36.45,3.619,30.527,5.162,24.603,6.697
		c-0.332,0.086-0.542,0.231-0.71,0.528c-0.751,1.323-1.541,2.625-2.29,3.95c-0.184,0.326-0.382,0.469-0.778,0.453
		C20.047,11.594,19.268,11.617,18.49,11.617z"/>
	<path fill="none" stroke="#FFFFFF" stroke-miterlimit="10" d="M18.49,11.617c0.778,0,1.558-0.023,2.334,0.01
		c0.396,0.016,0.594-0.127,0.778-0.453c0.75-1.324,1.539-2.626,2.29-3.95c0.168-0.296,0.379-0.441,0.71-0.528
		c5.925-1.535,11.848-3.078,17.767-4.634c0.454-0.119,0.67-0.114,0.814,0.418c1.565,5.784,3.162,11.561,4.768,17.335
		c0.092,0.331,0.049,0.578-0.124,0.86c-0.788,1.28-1.544,2.577-2.343,3.851c-0.213,0.341-0.23,0.585-0.008,0.938
		c0.803,1.271,1.557,2.569,2.34,3.851c0.17,0.277,0.232,0.522,0.141,0.858c-1.598,5.755-3.188,11.513-4.748,17.277
		c-0.152,0.563-0.361,0.625-0.893,0.483c-5.896-1.56-11.799-3.1-17.706-4.627c-0.365-0.096-0.573-0.268-0.748-0.572
		c-0.744-1.305-1.516-2.592-2.255-3.898c-0.184-0.325-0.395-0.459-0.788-0.45c-1.556,0.036-3.112,0.03-4.668,0.058
		c-0.343,0.007-0.59-0.096-0.832-0.334c-4.362-4.262-8.73-8.519-13.106-12.769C1.952,25.086,1.91,24.945,2.2,24.666
		c4.398-4.257,8.785-8.525,13.167-12.797c0.213-0.208,0.432-0.282,0.724-0.277c0.799,0.014,1.599,0.005,2.398,0.005
		C18.49,11.604,18.49,11.61,18.49,11.617z M11.506,27.227c0.011,0.25,0.137,0.338,0.238,0.438c3.242,3.211,6.486,6.42,9.722,9.637
		c0.249,0.248,0.53,0.376,0.863,0.458c3.886,0.97,7.771,1.944,11.655,2.916c0.716,0.181,1.436,0.347,2.244,0.539
		c-0.102-0.192-0.144-0.288-0.193-0.375c-2.616-4.405-5.236-8.812-7.838-13.225c-0.209-0.354-0.465-0.394-0.822-0.394
		c-4.587,0.008-9.175,0.006-13.763,0.006C12.921,27.227,12.23,27.227,11.506,27.227z M36.234,8.81
		c-0.258,0.048-0.42,0.069-0.577,0.109c-4.494,1.12-8.987,2.246-13.483,3.359c-0.327,0.081-0.554,0.263-0.776,0.484
		c-2.485,2.469-4.974,4.935-7.459,7.403c-0.829,0.824-1.649,1.654-2.592,2.601c0.381,0,0.583,0,0.785,0
		c5.047,0,10.095-0.008,15.144,0.011c0.504,0.002,0.781-0.148,1.033-0.576c2.168-3.688,4.361-7.361,6.545-11.04
		C35.303,10.407,35.744,9.647,36.234,8.81z M40.284,11.072c-0.122,0.164-0.188,0.238-0.239,0.322
		c-2.628,4.419-5.25,8.843-7.891,13.254c-0.205,0.343-0.073,0.561,0.087,0.832c2.502,4.208,4.997,8.418,7.503,12.624
		c0.152,0.254,0.238,0.565,0.535,0.744c0.029-0.07,0.058-0.123,0.074-0.18c1.285-4.46,2.569-8.921,3.855-13.382
		c0.055-0.182,0.063-0.363,0.009-0.544C42.919,20.222,41.617,15.703,40.284,11.072z"/>
	<path fill="none" stroke="#FFFFFF" stroke-miterlimit="10" d="M11.506,27.227c0.724,0,1.415,0,2.106,0
		c4.587,0,9.175,0.002,13.763-0.004c0.357,0,0.613,0.038,0.822,0.393c2.602,4.415,5.223,8.816,7.838,13.225
		c0.051,0.087,0.093,0.182,0.193,0.375c-0.81-0.191-1.528-0.357-2.244-0.539c-3.887-0.972-7.771-1.945-11.655-2.916
		c-0.333-0.082-0.614-0.21-0.863-0.458c-3.235-3.217-6.48-6.426-9.722-9.637C11.644,27.564,11.518,27.479,11.506,27.227z"/>
	<path fill="none" stroke="#FFFFFF" stroke-miterlimit="10" d="M36.234,8.81c-0.49,0.837-0.933,1.597-1.381,2.353
		c-2.185,3.679-4.377,7.352-6.545,11.04c-0.25,0.428-0.527,0.579-1.033,0.576c-5.047-0.019-10.095-0.011-15.145-0.011
		c-0.202,0-0.404,0-0.785,0c0.942-0.946,1.763-1.777,2.592-2.601c2.485-2.469,4.974-4.934,7.459-7.403
		c0.222-0.222,0.449-0.404,0.776-0.484c4.496-1.114,8.989-2.239,13.483-3.359C35.814,8.879,35.977,8.858,36.234,8.81z"/>
	<path fill="none" stroke="#FFFFFF" stroke-miterlimit="10" d="M40.284,11.072c1.333,4.63,2.635,9.15,3.937,13.67
		c0.051,0.181,0.043,0.362-0.01,0.544c-1.286,4.461-2.57,8.922-3.857,13.382c-0.016,0.057-0.043,0.109-0.074,0.18
		c-0.295-0.179-0.383-0.49-0.533-0.744c-2.506-4.205-5.001-8.416-7.503-12.624c-0.161-0.271-0.292-0.489-0.089-0.832
		c2.643-4.412,5.265-8.835,7.893-13.254C40.096,11.31,40.162,11.236,40.284,11.072z"/>
</g>
</svg>
