<?xml version="1.0" encoding="utf-8"?>
<!-- Generator: Adobe Illustrator 16.0.0, SVG Export Plug-In . SVG Version: 6.00 Build 0)  -->
<!DOCTYPE svg PUBLIC "-//W3C//DTD SVG 1.1//EN" "http://www.w3.org/Graphics/SVG/1.1/DTD/svg11.dtd">
<svg version="1.1" id="Layer_1" xmlns="http://www.w3.org/2000/svg" xmlns:xlink="http://www.w3.org/1999/xlink" x="0px" y="0px"
	 width="49.5px" height="49.5px" viewBox="0 0 49.5 49.5" enable-background="new 0 0 49.5 49.5" xml:space="preserve">
<g>
	<path fill="none" stroke="#FFFFFF" stroke-linecap="round" stroke-linejoin="round" stroke-miterlimit="10" d="M14.226,21.429
		c0.682-0.53,1.45-1.082,2.351-0.704c1.009,0.421,0.797,1.421,0.804,2.262c0.013,2.791,0.013,5.582-0.005,8.371
		c-0.002,0.588-0.017,1.199-0.171,1.759c-0.206,0.741-1.179,0.317-1.651,0.86c1.983,2.254,4.545,3.19,7.223,4.004
		c1.915,0.582,3.459,0.463,4.596-1.371c0.977-1.575,1.996-1.484,3.211-0.188c0.467,0.504,0.948,1.307,1.989,0.813
		c1.926-0.905,5.627-5.096,6.375-7.361c-0.776,0.482-1.519,1.059-2.343,1.443c-1.686,0.787-2.496,0.295-2.604-1.549
		c-0.099-1.726-0.026-3.457-0.155-5.178c-0.318-4.225-0.029-8.236,3.372-11.326c0.054-0.048-0.012-0.227-0.024-0.465
		c-1.844,0.415-3.479,1.204-5.039,2.202c-1.496,0.96-2.609,2.878-5.164,1.46c0.718,1.556,1.262,2.518,1.242,3.713
		c-0.057,3.253-0.004,6.51-0.024,9.766c-0.013,1.354-1.601,2.748-3.085,2.629c-1.494-0.115-2.154-1.017-2.13-2.549
		c0.046-3.256,0.016-6.512,0.007-9.769c-0.002-1.192,0.287-2.353-1.231-3.154c-0.932-0.494-0.807-1.896-0.386-2.936
		c0.31-0.764,0.768-1.467,1.173-2.223C16.416,13.196,7.373,22.507,7.789,28.09"/>
	<path fill="none" stroke="#FFFFFF" stroke-linecap="round" stroke-linejoin="round" stroke-miterlimit="10" d="M7.789,28.09
		c-0.419-5.584,8.628-14.894,14.767-16.15c-0.405,0.756-0.863,1.459-1.173,2.223c-0.421,1.039-0.545,2.442,0.386,2.936
		C23.287,17.9,22.998,19.06,23,20.253c0.009,3.256,0.04,6.513-0.007,9.769c-0.023,1.533,0.636,2.434,2.13,2.549
		c1.484,0.119,3.072-1.273,3.085-2.629c0.021-3.256-0.03-6.511,0.024-9.766c0.02-1.195-0.524-2.157-1.242-3.713
		c2.555,1.418,3.668-0.5,5.164-1.46c1.56-0.998,3.195-1.787,5.039-2.202c0.015,0.238,0.078,0.417,0.024,0.465
		c-3.401,3.09-3.69,7.102-3.372,11.326c0.129,1.721,0.061,3.452,0.155,5.178c0.104,1.846,0.919,2.336,2.604,1.549
		c0.824-0.389,1.564-0.961,2.343-1.443c-0.748,2.27-4.449,6.456-6.375,7.361c-1.041,0.49-1.522-0.311-1.989-0.813
		c-1.215-1.298-2.234-1.389-3.211,0.188c-1.137,1.834-2.681,1.953-4.596,1.371c-2.678-0.813-5.24-1.75-7.223-4.004
		c0.472-0.543,1.445-0.119,1.651-0.86c0.154-0.56,0.168-1.169,0.171-1.759c0.018-2.789,0.018-5.578,0.005-8.369
		c-0.007-0.84,0.205-1.841-0.804-2.262c-0.901-0.378-1.669,0.174-2.351,0.704c-2.016,1.565-2.401,2.324-4.991,5.099
		C9.026,26.75,8.056,27.686,7.789,28.09z"/>
</g>
<g>
	<path fill="none" stroke="#FFFFFF" stroke-miterlimit="10" d="M24.75,0.75c-13.255,0-24,10.745-24,24s10.745,24,24,24
		s24-10.745,24-24S38.005,0.75,24.75,0.75L24.75,0.75z"/>
</g>
<circle fill="none" stroke="#FFFFFF" stroke-linecap="round" stroke-linejoin="round" stroke-miterlimit="10" cx="24.75" cy="24.75" r="20"/>
</svg>
